<?xml version="1.0" encoding="UTF-8" standalone="no"?><!-- Generator: Gravit.io --><svg xmlns="http://www.w3.org/2000/svg" xmlns:xlink="http://www.w3.org/1999/xlink" style="isolation:isolate" viewBox="0 0 64 64" width="64pt" height="64pt"><defs><clipPath id="_clipPath_6DeVKdKGJcq7vmJjwmX2V1n9ET2zaFtc"><rect width="64" height="64"/></clipPath></defs><mask id="_mask_pXUQgqM5aB7XEFJzfbJcwepfTnLe6zHS" x="-200%" y="-200%" width="400%" height="400%"><rect x="-200%" y="-200%" width="400%" height="400%" style="fill:white;"/><path d=" M 52 24.01 L 52 47.021 L 38 47 L 38 23.99 L 52 24.01 Z  M 31.298 24 L 38.012 24 L 37.996 35 L 31.281 35 L 31.298 24 Z " fill-rule="evenodd" fill="black" stroke="none"/></mask><g clip-path="url(#_clipPath_6DeVKdKGJcq7vmJjwmX2V1n9ET2zaFtc)" mask="url(#_mask_pXUQgqM5aB7XEFJzfbJcwepfTnLe6zHS)"><path d=" M 38 59 L 26 59 L 26 38 L 38 38 L 38 59 Z " fill="rgb(0,0,0)"/><circle vector-effect="non-scaling-stroke" cx="31.999999999999986" cy="24" r="15" fill="none" stroke-width="8" stroke="rgb(0,0,0)" stroke-linejoin="miter" stroke-linecap="square" stroke-miterlimit="3"/><g clip-path="url(#_clipPath_h2r8O2zQw988u6yEIR2IGnnW2NM56jjE)"><text transform="matrix(1,0,0,1,25.292,31.748)" style="font-family:'Open Sans';font-weight:700;font-size:20px;font-style:normal;fill:#000000;stroke:none;">4</text></g><defs><clipPath id="_clipPath_h2r8O2zQw988u6yEIR2IGnnW2NM56jjE"><rect x="0" y="0" width="14" height="16.5" transform="matrix(1,0,0,1,25,15.74)"/></clipPath></defs></g></svg>