<?xml version="1.0" encoding="UTF-8" standalone="no"?><!-- Generator: Gravit.io --><svg xmlns="http://www.w3.org/2000/svg" xmlns:xlink="http://www.w3.org/1999/xlink" style="isolation:isolate" viewBox="0 0 64 64" width="64pt" height="64pt"><defs><clipPath id="_clipPath_JE0NFHvVKcqP3U7vltiCcOOME8E3FsxT"><rect width="64" height="64"/></clipPath></defs><mask id="_mask_zvNLKpPrMtXmRJ2E7NcFadGQfKpVAhEW" x="-200%" y="-200%" width="400%" height="400%"><rect x="-200%" y="-200%" width="400%" height="400%" style="fill:white;"/><path d=" M 12 24.021 L 12 47.031 L 26 47.01 L 26 24 L 12 24.021 Z  M 32.702 24.01 L 25.988 24.01 L 26.004 35.01 L 32.719 35.01 L 32.702 24.01 Z " fill-rule="evenodd" fill="black" stroke="none"/></mask><g clip-path="url(#_clipPath_JE0NFHvVKcqP3U7vltiCcOOME8E3FsxT)" mask="url(#_mask_zvNLKpPrMtXmRJ2E7NcFadGQfKpVAhEW)"><path d=" M 38 59 L 26 59 L 26 38 L 38 38 L 38 59 Z " fill="rgb(0,0,0)"/><circle vector-effect="non-scaling-stroke" cx="31.999999999999986" cy="24" r="15" fill="none" stroke-width="8" stroke="rgb(0,0,0)" stroke-linejoin="miter" stroke-linecap="square" stroke-miterlimit="3"/><g clip-path="url(#_clipPath_MJAEKrQiChVr0nRXQOQ9XarN10tvZEh0)"><text transform="matrix(1,0,0,1,26.292,31.759)" style="font-family:'Open Sans';font-weight:700;font-size:20px;font-style:normal;fill:#000000;stroke:none;">2</text></g><defs><clipPath id="_clipPath_MJAEKrQiChVr0nRXQOQ9XarN10tvZEh0"><rect x="0" y="0" width="14" height="15" transform="matrix(1,0,0,1,26,16.5)"/></clipPath></defs></g></svg>